<?xml version="1.0" encoding="UTF-8"?>
<!DOCTYPE svg PUBLIC "-//W3C//DTD SVG 1.1//EN" "http://www.w3.org/Graphics/SVG/1.1/DTD/svg11.dtd">
<!-- Creator: CorelDRAW 2017 -->
<svg xmlns="http://www.w3.org/2000/svg" xml:space="preserve" width="98.4834mm" height="12.4742mm" version="1.1" style="shape-rendering:geometricPrecision; text-rendering:geometricPrecision; image-rendering:optimizeQuality; fill-rule:evenodd; clip-rule:evenodd"
viewBox="0 0 9848.36 1247.42"
 xmlns:xlink="http://www.w3.org/1999/xlink">
 <defs>
  <style type="text/css">
   <![CDATA[
    .fil1 {fill:#256090;fill-rule:nonzero}
    .fil2 {fill:#A84C4C;fill-rule:nonzero}
    .fil0 {fill:#ECD46A;fill-rule:nonzero}
   ]]>
  </style>
 </defs>
 <g id="Ebene_x0020_1">
  <metadata id="CorelCorpID_0Corel-Layer"/>
  <g id="_1842637475056">
   <path class="fil0" d="M368.53 292.1c97.6,0 181.09,35.04 250.71,105.13 69.85,70.08 104.65,154.04 104.65,251.88 0,99.25 -35.27,183.91 -105.83,253.76 -70.79,69.85 -155.93,104.66 -255.64,104.66 -99.96,0 -185.33,-35.04 -256.12,-105.13 -70.79,-70.08 -106.3,-154.51 -106.3,-253.29 0,-100.66 35.51,-185.33 106.3,-254 70.79,-68.67 158.28,-103.01 262.23,-103.01zm-6.82 254c-27.75,0 -51.04,10.11 -70.32,30.1 -19.29,19.99 -28.93,44.45 -28.93,73.61 0,28.46 9.64,52.92 29.16,73.38 19.53,20.23 42.81,30.34 70.09,30.34 27.52,0 51.04,-10.11 70.56,-30.34 19.52,-20.46 29.16,-44.92 29.16,-73.38 0,-29.16 -9.64,-53.62 -28.93,-73.61 -19.28,-19.99 -42.8,-30.1 -70.79,-30.1zm711.67 701.32l-258.23 0 0 -573.15c0,-105.36 27.51,-191.2 82.78,-257.29 31.75,-38.1 72.2,-68.44 121.12,-91.02 48.92,-22.57 99.25,-33.86 150.76,-33.86 102.54,0 189.08,34.57 259.4,103.48 70.32,68.91 105.6,153.34 105.6,253.53 0,97.37 -35.04,181.56 -104.89,252.35 -69.85,70.79 -152.4,106.07 -248.12,106.07 -15.52,0 -38.57,-1.41 -68.91,-4.47l0 -284.1c21.17,16.46 42.33,24.69 63.5,24.69 26.81,0 49.62,-9.87 68.67,-29.63 19.05,-19.76 28.7,-43.04 28.7,-70.08 0,-27.29 -9.88,-50.33 -29.64,-69.38 -19.99,-19.05 -43.51,-28.46 -71.26,-28.46 -66.32,0 -99.48,45.86 -99.48,137.82l0 563.5zm1249.3 -555.98l-390.64 0c-5.41,-19.75 -8.23,-37.63 -8.23,-54.09 0,-22.81 3.99,-45.39 11.76,-67.26l130.99 0c-9.17,-51.74 -37.86,-77.61 -86.07,-77.61 -32.22,0 -58.33,13.64 -78.56,41.15 -20.22,27.28 -30.33,62.56 -30.33,105.37 0,44.68 9.64,80.66 29.16,108.42 19.52,27.51 45.15,41.39 76.9,41.39 25.64,0 50.57,-12.94 74.32,-38.81l146.76 176.63c-68.44,53.85 -144.64,80.9 -228.37,80.9 -101.83,0 -187.67,-34.34 -257.05,-102.77 -69.38,-68.68 -104.19,-153.35 -104.19,-254.71 0,-100.66 35.04,-185.8 105.13,-255.18 70.32,-69.38 156.39,-104.18 258.46,-104.18 99.72,0 183.68,33.86 251.42,101.83 67.97,67.74 101.83,151.23 101.83,250.71 0,10.11 -1.17,26.11 -3.29,48.21zm718.96 301.98l-258.23 0 0 -388.06c0,-39.51 -16,-59.26 -48.22,-59.26 -31.75,0 -47.74,19.75 -47.74,59.26l0 388.06 -258.23 0 0 -383.35c0,-89.37 29.63,-164.87 88.9,-226.01 59.27,-61.39 131.7,-91.96 217.78,-91.96 98.07,0 176.86,35.51 236.13,106.77 46.33,55.51 69.61,132.88 69.61,231.89l0 362.66z"/>
   <path class="fil1" d="M4188.16 52.21l0 677.8c0,84.9 -25.4,153.81 -76.43,207.2 -51.04,53.39 -116.89,80.2 -197.79,80.2 -97.37,0 -171.69,-44.45 -223.19,-133.59 -31.75,47.98 -65.86,82.32 -102.07,102.78 -36.46,20.46 -81.14,30.81 -134.53,30.81 -84.67,0 -149.58,-26.81 -194.73,-80.2 -44.92,-53.39 -67.5,-130.29 -67.5,-230.48l0 -654.52 279.4 0 0 612.42c0,30.58 2.35,50.57 7.29,60.21 4.94,9.64 14.82,14.58 29.87,14.58 27.98,0 41.86,-23.28 41.86,-70.08l0 -617.13 279.4 0 0 612.42c0,29.63 2.59,49.39 7.53,59.5 5.17,10.12 15.05,15.29 29.86,15.29 27.76,0 41.63,-24.93 41.63,-74.79l0 -612.42 279.4 0zm825.03 639.23l-390.64 0c-5.41,-19.75 -8.23,-37.63 -8.23,-54.09 0,-22.81 3.99,-45.39 11.76,-67.26l130.99 0c-9.17,-51.74 -37.86,-77.61 -86.07,-77.61 -32.22,0 -58.33,13.64 -78.56,41.15 -20.22,27.28 -30.33,62.56 -30.33,105.37 0,44.68 9.64,80.66 29.16,108.42 19.52,27.51 45.15,41.39 76.9,41.39 25.64,0 50.57,-12.94 74.32,-38.81l146.76 176.63c-68.44,53.85 -144.64,80.9 -228.37,80.9 -101.83,0 -187.67,-34.34 -257.05,-102.77 -69.38,-68.68 -104.19,-153.35 -104.19,-254.71 0,-100.66 35.04,-185.8 105.13,-255.18 70.32,-69.38 156.39,-104.18 258.46,-104.18 99.72,0 183.68,33.86 251.42,101.83 67.97,67.74 101.83,151.23 101.83,250.71 0,10.11 -1.17,26.11 -3.29,48.21zm349.25 -639.23l0 563.5c0,91.96 32.93,137.82 98.54,137.82 27.99,0 51.74,-9.64 71.26,-28.69 19.52,-19.05 29.17,-42.33 29.17,-69.38 0,-28.22 -9.18,-51.74 -27.52,-70.79 -18.34,-19.05 -40.69,-28.69 -67.26,-28.69 -18.82,0 -40.46,8.23 -64.68,24.46l0 -283.87c30.34,-3.06 53.39,-4.47 68.91,-4.47 96.9,0 180.15,35.04 249.3,104.89 69.14,69.85 103.71,154.05 103.71,252.35 0,100.9 -35.28,185.8 -105.6,254.71 -70.32,68.91 -156.86,103.48 -259.4,103.48 -51.51,0 -101.84,-11.29 -150.76,-33.87 -48.92,-22.57 -89.37,-52.91 -121.12,-91.01 -55.27,-66.32 -82.78,-151.93 -82.78,-257.29l0 -573.15 258.23 0z"/>
   <path class="fil2" d="M6401.71 29.63c133.11,0 247.41,48.45 342.66,145.35 95.25,97.13 143,213.07 143,348.07 0,137.58 -47.98,254.23 -143.94,350.19 -95.95,96.19 -212.6,144.17 -349.95,144.17 -136.41,0 -252.83,-48.21 -349.25,-144.64 -96.43,-96.66 -144.64,-213.08 -144.64,-349.72 0,-137.82 48.45,-254.47 145.58,-349.96 97.13,-95.72 216.13,-143.46 356.54,-143.46zm-8.23 277.99c-57.39,0 -106.31,21.17 -146.76,63.27 -40.45,42.09 -60.67,93.13 -60.67,152.63 0,59.5 20.22,110.54 60.91,152.64 40.69,42.09 89.6,63.26 146.52,63.26 57.85,0 107.01,-20.93 147.22,-63.03 40.22,-41.86 60.21,-92.9 60.21,-152.87 0,-59.97 -19.99,-111.01 -60.21,-152.87 -40.21,-42.1 -89.37,-63.03 -147.22,-63.03zm978.6 149.58l0 270.93 -114.3 0 0 265.29 -258.23 0 0 -584.67c0,-65.38 11.29,-121.36 33.63,-167.45 28.69,-59.03 71.73,-107.25 129.82,-144.41 58.09,-37.39 118.54,-55.97 181.57,-55.97l27.51 -0.47 0 270.46c-5.88,0.71 -10.35,0.94 -12.93,0.94 -32.46,0 -57.39,10.59 -75.03,31.75 -17.64,21.17 -26.34,51.27 -26.34,90.31l0 23.29 114.3 0zm485.66 0l0 270.93 -114.3 0 0 265.29 -258.23 0 0 -584.67c0,-65.38 11.29,-121.36 33.63,-167.45 28.69,-59.03 71.73,-107.25 129.82,-144.41 58.09,-37.39 118.54,-55.97 181.57,-55.97l27.51 -0.47 0 270.46c-5.88,0.71 -10.35,0.94 -12.93,0.94 -32.46,0 -57.39,10.59 -75.03,31.75 -17.64,21.17 -26.34,51.27 -26.34,90.31l0 23.29 114.3 0zm371.36 -150.99l0 687.21 -258.23 0 0 -687.21 258.23 0zm-127.7 -306.21c35.04,0 65.14,12.23 90.78,36.92 25.63,24.46 38.33,53.62 38.33,87.26 0,35.74 -11.99,65.38 -36.22,88.19 -24.22,23.05 -55.03,34.57 -92.89,34.57 -37.63,0 -68.68,-11.52 -92.9,-34.57 -24.23,-22.81 -36.22,-52.45 -36.22,-88.19 0,-33.64 12.7,-62.8 38.34,-87.26 25.63,-24.69 55.73,-36.92 90.78,-36.92zm700.61 677.1l255.65 -9.65c-7.29,99.02 -44.22,180.63 -110.78,244.36 -66.55,63.74 -147.69,95.72 -243.18,95.72 -101.13,0 -186.26,-35.04 -255.88,-105.36 -69.61,-70.32 -104.42,-156.4 -104.42,-258.23 0,-96.9 35.04,-179.69 105.36,-248.6 70.32,-68.9 154.52,-103.24 252.83,-103.24 85.84,0 161.57,27.04 227.42,81.14 65.62,54.32 106.54,123.23 122.53,207.2l-261.05 9.64c-22.58,-29.4 -51.04,-43.98 -85.38,-43.98 -29.39,0 -53.62,9.64 -72.43,28.93 -18.82,19.28 -28.22,43.74 -28.22,73.14 0,29.87 9.87,54.8 29.86,75.02 19.99,20.23 44.92,30.34 74.79,30.34 43.51,0 74.56,-25.4 92.9,-76.43zm1043.05 14.34l-390.64 0c-5.41,-19.75 -8.23,-37.63 -8.23,-54.09 0,-22.81 3.99,-45.39 11.76,-67.26l130.99 0c-9.17,-51.74 -37.86,-77.61 -86.07,-77.61 -32.22,0 -58.33,13.64 -78.56,41.15 -20.22,27.28 -30.33,62.56 -30.33,105.37 0,44.68 9.64,80.66 29.16,108.42 19.52,27.51 45.15,41.39 76.9,41.39 25.64,0 50.57,-12.94 74.32,-38.81l146.76 176.63c-68.44,53.85 -144.64,80.9 -228.37,80.9 -101.83,0 -187.67,-34.34 -257.05,-102.77 -69.38,-68.68 -104.19,-153.35 -104.19,-254.71 0,-100.66 35.04,-185.8 105.13,-255.18 70.32,-69.38 156.39,-104.18 258.46,-104.18 99.72,0 183.68,33.86 251.42,101.83 67.97,67.74 101.83,151.23 101.83,250.71 0,10.11 -1.17,26.11 -3.29,48.21z"/>
  </g>
 </g>
</svg>
