<?xml version="1.0" encoding="UTF-8"?>
<!DOCTYPE svg PUBLIC "-//W3C//DTD SVG 1.1//EN" "http://www.w3.org/Graphics/SVG/1.1/DTD/svg11.dtd">
<svg version="1.2" width="169.88mm" height="136.01mm" viewBox="-1 0 16988 13601" preserveAspectRatio="xMidYMid" fill-rule="evenodd" stroke-width="28.222" stroke-linejoin="round" xmlns="http://www.w3.org/2000/svg" xmlns:ooo="http://xml.openoffice.org/svg/export" xmlns:xlink="http://www.w3.org/1999/xlink" xmlns:presentation="http://sun.com/xmlns/staroffice/presentation" xmlns:smil="http://www.w3.org/2001/SMIL20/" xmlns:anim="urn:oasis:names:tc:opendocument:xmlns:animation:1.0" xml:space="preserve">
 <defs class="EmbeddedBulletChars">
  <g id="bullet-char-template-57356" transform="scale(0.00048828125,-0.00048828125)">
   <path d="M 580,1141 L 1163,571 580,0 -4,571 580,1141 Z"/>
  </g>
  <g id="bullet-char-template-57354" transform="scale(0.00048828125,-0.00048828125)">
   <path d="M 8,1128 L 1137,1128 1137,0 8,0 8,1128 Z"/>
  </g>
  <g id="bullet-char-template-10146" transform="scale(0.00048828125,-0.00048828125)">
   <path d="M 174,0 L 602,739 174,1481 1456,739 174,0 Z M 1358,739 L 309,1346 659,739 1358,739 Z"/>
  </g>
  <g id="bullet-char-template-10132" transform="scale(0.00048828125,-0.00048828125)">
   <path d="M 2015,739 L 1276,0 717,0 1260,543 174,543 174,936 1260,936 717,1481 1274,1481 2015,739 Z"/>
  </g>
  <g id="bullet-char-template-10007" transform="scale(0.00048828125,-0.00048828125)">
   <path d="M 0,-2 C -7,14 -16,27 -25,37 L 356,567 C 262,823 215,952 215,954 215,979 228,992 255,992 264,992 276,990 289,987 310,991 331,999 354,1012 L 381,999 492,748 772,1049 836,1024 860,1049 C 881,1039 901,1025 922,1006 886,937 835,863 770,784 769,783 710,716 594,584 L 774,223 C 774,196 753,168 711,139 L 727,119 C 717,90 699,76 672,76 641,76 570,178 457,381 L 164,-76 C 142,-110 111,-127 72,-127 30,-127 9,-110 8,-76 1,-67 -2,-52 -2,-32 -2,-23 -1,-13 0,-2 Z"/>
  </g>
  <g id="bullet-char-template-10004" transform="scale(0.00048828125,-0.00048828125)">
   <path d="M 285,-33 C 182,-33 111,30 74,156 52,228 41,333 41,471 41,549 55,616 82,672 116,743 169,778 240,778 293,778 328,747 346,684 L 369,508 C 377,444 397,411 428,410 L 1163,1116 C 1174,1127 1196,1133 1229,1133 1271,1133 1292,1118 1292,1087 L 1292,965 C 1292,929 1282,901 1262,881 L 442,47 C 390,-6 338,-33 285,-33 Z"/>
  </g>
  <g id="bullet-char-template-9679" transform="scale(0.00048828125,-0.00048828125)">
   <path d="M 813,0 C 632,0 489,54 383,161 276,268 223,411 223,592 223,773 276,916 383,1023 489,1130 632,1184 813,1184 992,1184 1136,1130 1245,1023 1353,916 1407,772 1407,592 1407,412 1353,268 1245,161 1136,54 992,0 813,0 Z"/>
  </g>
  <g id="bullet-char-template-8226" transform="scale(0.00048828125,-0.00048828125)">
   <path d="M 346,457 C 273,457 209,483 155,535 101,586 74,649 74,723 74,796 101,859 155,911 209,963 273,989 346,989 419,989 480,963 531,910 582,859 608,796 608,723 608,648 583,586 532,535 482,483 420,457 346,457 Z"/>
  </g>
  <g id="bullet-char-template-8211" transform="scale(0.00048828125,-0.00048828125)">
   <path d="M -4,459 L 1135,459 1135,606 -4,606 -4,459 Z"/>
  </g>
  <g id="bullet-char-template-61548" transform="scale(0.00048828125,-0.00048828125)">
   <path d="M 173,740 C 173,903 231,1043 346,1159 462,1274 601,1332 765,1332 928,1332 1067,1274 1183,1159 1299,1043 1357,903 1357,740 1357,577 1299,437 1183,322 1067,206 928,148 765,148 601,148 462,206 346,322 231,437 173,577 173,740 Z"/>
  </g>
 </defs>
 <g class="Page">
  <g class="Group">
   <g class="com.sun.star.drawing.ClosedBezierShape">
    <g id="id3">
     <rect class="BoundingBox" stroke="none" fill="none" x="26" y="6363" width="3608" height="847"/>
     <path fill="rgb(37,96,144)" stroke="none" d="M 3633,6575 L 3633,6997 3633,6997 C 3633,7035 3631,7071 3627,7103 3623,7135 3617,7162 3610,7181 3604,7200 3596,7209 3588,7209 L 71,7209 71,7209 C 63,7209 55,7200 49,7181 42,7162 36,7135 32,7103 28,7071 26,7035 26,6997 L 26,6575 26,6575 C 26,6538 28,6501 32,6469 36,6437 42,6411 49,6392 55,6373 63,6363 71,6363 L 3588,6363 3588,6363 C 3596,6363 3604,6373 3610,6392 3617,6411 3623,6437 3627,6469 3631,6501 3633,6538 3633,6575 Z"/>
    </g>
   </g>
   <g class="com.sun.star.drawing.ClosedBezierShape">
    <g id="id4">
     <rect class="BoundingBox" stroke="none" fill="none" x="6627" y="6363" width="3609" height="847"/>
     <path fill="rgb(37,96,144)" stroke="none" d="M 10234,6575 L 10234,6997 10234,6997 C 10234,7035 10232,7071 10228,7103 10224,7135 10218,7162 10211,7181 10205,7200 10197,7209 10189,7209 L 6672,7209 6672,7209 C 6664,7209 6656,7200 6650,7181 6643,7162 6637,7135 6633,7103 6629,7071 6627,7035 6627,6997 L 6627,6575 6627,6575 C 6627,6538 6629,6501 6633,6469 6637,6437 6643,6411 6650,6392 6656,6373 6664,6363 6672,6363 L 10189,6363 10189,6363 C 10197,6363 10205,6373 10211,6392 10218,6411 10224,6437 10228,6469 10232,6501 10234,6538 10234,6575 Z"/>
    </g>
   </g>
   <g class="com.sun.star.drawing.ClosedBezierShape">
    <g id="id5">
     <rect class="BoundingBox" stroke="none" fill="none" x="13328" y="6363" width="3608" height="847"/>
     <path fill="rgb(37,96,144)" stroke="none" d="M 16935,6575 L 16935,6997 16935,6997 C 16935,7035 16933,7071 16929,7103 16925,7135 16919,7162 16912,7181 16906,7200 16898,7209 16890,7209 L 13373,7209 13373,7209 C 13365,7209 13357,7200 13351,7181 13344,7162 13338,7135 13334,7103 13330,7071 13328,7035 13328,6997 L 13328,6575 13328,6575 C 13328,6538 13330,6501 13334,6469 13338,6437 13344,6411 13351,6392 13357,6373 13365,6363 13373,6363 L 16890,6363 16890,6363 C 16898,6363 16906,6373 16912,6392 16919,6411 16925,6437 16929,6469 16933,6501 16935,6538 16935,6575 Z"/>
    </g>
   </g>
   <g class="com.sun.star.drawing.CustomShape">
    <g id="id6">
     <rect class="BoundingBox" stroke="none" fill="none" x="-1" y="0" width="16988" height="13601"/>
    </g>
   </g>
  </g>
 </g>
</svg>