<?xml version="1.0" encoding="UTF-8"?>
<!DOCTYPE svg PUBLIC "-//W3C//DTD SVG 1.1//EN" "http://www.w3.org/Graphics/SVG/1.1/DTD/svg11.dtd">
<svg version="1.2" width="169.88mm" height="136.01mm" viewBox="-1 0 16988 13601" preserveAspectRatio="xMidYMid" fill-rule="evenodd" stroke-width="28.222" stroke-linejoin="round" xmlns="http://www.w3.org/2000/svg" xmlns:ooo="http://xml.openoffice.org/svg/export" xmlns:xlink="http://www.w3.org/1999/xlink" xmlns:presentation="http://sun.com/xmlns/staroffice/presentation" xmlns:smil="http://www.w3.org/2001/SMIL20/" xmlns:anim="urn:oasis:names:tc:opendocument:xmlns:animation:1.0" xml:space="preserve">
 <defs class="EmbeddedBulletChars">
  <g id="bullet-char-template-57356" transform="scale(0.00048828125,-0.00048828125)">
   <path d="M 580,1141 L 1163,571 580,0 -4,571 580,1141 Z"/>
  </g>
  <g id="bullet-char-template-57354" transform="scale(0.00048828125,-0.00048828125)">
   <path d="M 8,1128 L 1137,1128 1137,0 8,0 8,1128 Z"/>
  </g>
  <g id="bullet-char-template-10146" transform="scale(0.00048828125,-0.00048828125)">
   <path d="M 174,0 L 602,739 174,1481 1456,739 174,0 Z M 1358,739 L 309,1346 659,739 1358,739 Z"/>
  </g>
  <g id="bullet-char-template-10132" transform="scale(0.00048828125,-0.00048828125)">
   <path d="M 2015,739 L 1276,0 717,0 1260,543 174,543 174,936 1260,936 717,1481 1274,1481 2015,739 Z"/>
  </g>
  <g id="bullet-char-template-10007" transform="scale(0.00048828125,-0.00048828125)">
   <path d="M 0,-2 C -7,14 -16,27 -25,37 L 356,567 C 262,823 215,952 215,954 215,979 228,992 255,992 264,992 276,990 289,987 310,991 331,999 354,1012 L 381,999 492,748 772,1049 836,1024 860,1049 C 881,1039 901,1025 922,1006 886,937 835,863 770,784 769,783 710,716 594,584 L 774,223 C 774,196 753,168 711,139 L 727,119 C 717,90 699,76 672,76 641,76 570,178 457,381 L 164,-76 C 142,-110 111,-127 72,-127 30,-127 9,-110 8,-76 1,-67 -2,-52 -2,-32 -2,-23 -1,-13 0,-2 Z"/>
  </g>
  <g id="bullet-char-template-10004" transform="scale(0.00048828125,-0.00048828125)">
   <path d="M 285,-33 C 182,-33 111,30 74,156 52,228 41,333 41,471 41,549 55,616 82,672 116,743 169,778 240,778 293,778 328,747 346,684 L 369,508 C 377,444 397,411 428,410 L 1163,1116 C 1174,1127 1196,1133 1229,1133 1271,1133 1292,1118 1292,1087 L 1292,965 C 1292,929 1282,901 1262,881 L 442,47 C 390,-6 338,-33 285,-33 Z"/>
  </g>
  <g id="bullet-char-template-9679" transform="scale(0.00048828125,-0.00048828125)">
   <path d="M 813,0 C 632,0 489,54 383,161 276,268 223,411 223,592 223,773 276,916 383,1023 489,1130 632,1184 813,1184 992,1184 1136,1130 1245,1023 1353,916 1407,772 1407,592 1407,412 1353,268 1245,161 1136,54 992,0 813,0 Z"/>
  </g>
  <g id="bullet-char-template-8226" transform="scale(0.00048828125,-0.00048828125)">
   <path d="M 346,457 C 273,457 209,483 155,535 101,586 74,649 74,723 74,796 101,859 155,911 209,963 273,989 346,989 419,989 480,963 531,910 582,859 608,796 608,723 608,648 583,586 532,535 482,483 420,457 346,457 Z"/>
  </g>
  <g id="bullet-char-template-8211" transform="scale(0.00048828125,-0.00048828125)">
   <path d="M -4,459 L 1135,459 1135,606 -4,606 -4,459 Z"/>
  </g>
  <g id="bullet-char-template-61548" transform="scale(0.00048828125,-0.00048828125)">
   <path d="M 173,740 C 173,903 231,1043 346,1159 462,1274 601,1332 765,1332 928,1332 1067,1274 1183,1159 1299,1043 1357,903 1357,740 1357,577 1299,437 1183,322 1067,206 928,148 765,148 601,148 462,206 346,322 231,437 173,577 173,740 Z"/>
  </g>
 </defs>
 <g class="Page">
  <g class="Group">
   <g class="com.sun.star.drawing.ClosedBezierShape">
    <g id="id3">
     <rect class="BoundingBox" stroke="none" fill="none" x="26" y="6363" width="808" height="847"/>
     <path fill="rgb(37,96,144)" stroke="none" d="M 833,6575 L 833,6997 833,6997 C 833,7035 832,7071 832,7103 831,7135 829,7162 828,7181 826,7200 825,7209 823,7209 L 36,7209 36,7209 C 34,7209 33,7200 31,7181 30,7162 28,7135 27,7103 27,7071 26,7035 26,6997 L 26,6575 26,6575 C 26,6538 27,6501 27,6469 28,6437 30,6411 31,6392 33,6373 34,6363 36,6363 L 823,6363 823,6363 C 825,6363 826,6373 828,6392 829,6411 831,6437 832,6469 832,6501 833,6538 833,6575 Z"/>
    </g>
   </g>
   <g class="com.sun.star.drawing.ClosedBezierShape">
    <g id="id4">
     <rect class="BoundingBox" stroke="none" fill="none" x="8130" y="6363" width="808" height="847"/>
     <path fill="rgb(37,96,144)" stroke="none" d="M 8937,6575 L 8937,6997 8937,6997 C 8937,7035 8936,7071 8936,7103 8935,7135 8933,7162 8932,7181 8930,7200 8929,7209 8927,7209 L 8140,7209 8140,7209 C 8138,7209 8137,7200 8135,7181 8134,7162 8132,7135 8131,7103 8131,7071 8130,7035 8130,6997 L 8130,6575 8130,6575 C 8130,6538 8131,6501 8131,6469 8132,6437 8134,6411 8135,6392 8137,6373 8138,6363 8140,6363 L 8927,6363 8927,6363 C 8929,6363 8930,6373 8932,6392 8933,6411 8935,6437 8936,6469 8936,6501 8937,6538 8937,6575 Z"/>
    </g>
   </g>
   <g class="com.sun.star.drawing.ClosedBezierShape">
    <g id="id5">
     <rect class="BoundingBox" stroke="none" fill="none" x="16135" y="6363" width="808" height="847"/>
     <path fill="rgb(37,96,144)" stroke="none" d="M 16942,6575 L 16942,6997 16942,6997 C 16942,7035 16941,7071 16941,7103 16940,7135 16938,7162 16937,7181 16935,7200 16934,7209 16932,7209 L 16145,7209 16145,7209 C 16143,7209 16142,7200 16140,7181 16139,7162 16137,7135 16136,7103 16136,7071 16135,7035 16135,6997 L 16135,6575 16135,6575 C 16135,6538 16136,6501 16136,6469 16137,6437 16139,6411 16140,6392 16142,6373 16143,6363 16145,6363 L 16932,6363 16932,6363 C 16934,6363 16935,6373 16937,6392 16938,6411 16940,6437 16941,6469 16941,6501 16942,6538 16942,6575 Z"/>
    </g>
   </g>
   <g class="com.sun.star.drawing.CustomShape">
    <g id="id6">
     <rect class="BoundingBox" stroke="none" fill="none" x="-1" y="0" width="16988" height="13601"/>
    </g>
   </g>
  </g>
 </g>
</svg>