<?xml version="1.0" encoding="UTF-8"?>
<!DOCTYPE svg PUBLIC "-//W3C//DTD SVG 1.1//EN" "http://www.w3.org/Graphics/SVG/1.1/DTD/svg11.dtd">
<svg version="1.2" width="135.46mm" height="135.46mm" viewBox="-14 -14 13546 13546" preserveAspectRatio="xMidYMid" fill-rule="evenodd" stroke-width="28.222" stroke-linejoin="round" xmlns="http://www.w3.org/2000/svg" xmlns:ooo="http://xml.openoffice.org/svg/export" xmlns:xlink="http://www.w3.org/1999/xlink" xmlns:presentation="http://sun.com/xmlns/staroffice/presentation" xmlns:smil="http://www.w3.org/2001/SMIL20/" xmlns:anim="urn:oasis:names:tc:opendocument:xmlns:animation:1.0" xml:space="preserve">
 <defs class="EmbeddedBulletChars">
  <g id="bullet-char-template-57356" transform="scale(0.00048828125,-0.00048828125)">
   <path d="M 580,1141 L 1163,571 580,0 -4,571 580,1141 Z"/>
  </g>
  <g id="bullet-char-template-57354" transform="scale(0.00048828125,-0.00048828125)">
   <path d="M 8,1128 L 1137,1128 1137,0 8,0 8,1128 Z"/>
  </g>
  <g id="bullet-char-template-10146" transform="scale(0.00048828125,-0.00048828125)">
   <path d="M 174,0 L 602,739 174,1481 1456,739 174,0 Z M 1358,739 L 309,1346 659,739 1358,739 Z"/>
  </g>
  <g id="bullet-char-template-10132" transform="scale(0.00048828125,-0.00048828125)">
   <path d="M 2015,739 L 1276,0 717,0 1260,543 174,543 174,936 1260,936 717,1481 1274,1481 2015,739 Z"/>
  </g>
  <g id="bullet-char-template-10007" transform="scale(0.00048828125,-0.00048828125)">
   <path d="M 0,-2 C -7,14 -16,27 -25,37 L 356,567 C 262,823 215,952 215,954 215,979 228,992 255,992 264,992 276,990 289,987 310,991 331,999 354,1012 L 381,999 492,748 772,1049 836,1024 860,1049 C 881,1039 901,1025 922,1006 886,937 835,863 770,784 769,783 710,716 594,584 L 774,223 C 774,196 753,168 711,139 L 727,119 C 717,90 699,76 672,76 641,76 570,178 457,381 L 164,-76 C 142,-110 111,-127 72,-127 30,-127 9,-110 8,-76 1,-67 -2,-52 -2,-32 -2,-23 -1,-13 0,-2 Z"/>
  </g>
  <g id="bullet-char-template-10004" transform="scale(0.00048828125,-0.00048828125)">
   <path d="M 285,-33 C 182,-33 111,30 74,156 52,228 41,333 41,471 41,549 55,616 82,672 116,743 169,778 240,778 293,778 328,747 346,684 L 369,508 C 377,444 397,411 428,410 L 1163,1116 C 1174,1127 1196,1133 1229,1133 1271,1133 1292,1118 1292,1087 L 1292,965 C 1292,929 1282,901 1262,881 L 442,47 C 390,-6 338,-33 285,-33 Z"/>
  </g>
  <g id="bullet-char-template-9679" transform="scale(0.00048828125,-0.00048828125)">
   <path d="M 813,0 C 632,0 489,54 383,161 276,268 223,411 223,592 223,773 276,916 383,1023 489,1130 632,1184 813,1184 992,1184 1136,1130 1245,1023 1353,916 1407,772 1407,592 1407,412 1353,268 1245,161 1136,54 992,0 813,0 Z"/>
  </g>
  <g id="bullet-char-template-8226" transform="scale(0.00048828125,-0.00048828125)">
   <path d="M 346,457 C 273,457 209,483 155,535 101,586 74,649 74,723 74,796 101,859 155,911 209,963 273,989 346,989 419,989 480,963 531,910 582,859 608,796 608,723 608,648 583,586 532,535 482,483 420,457 346,457 Z"/>
  </g>
  <g id="bullet-char-template-8211" transform="scale(0.00048828125,-0.00048828125)">
   <path d="M -4,459 L 1135,459 1135,606 -4,606 -4,459 Z"/>
  </g>
  <g id="bullet-char-template-61548" transform="scale(0.00048828125,-0.00048828125)">
   <path d="M 173,740 C 173,903 231,1043 346,1159 462,1274 601,1332 765,1332 928,1332 1067,1274 1183,1159 1299,1043 1357,903 1357,740 1357,577 1299,437 1183,322 1067,206 928,148 765,148 601,148 462,206 346,322 231,437 173,577 173,740 Z"/>
  </g>
 </defs>
 <g class="Page">
  <g class="Group">
   <g class="com.sun.star.drawing.ClosedBezierShape">
    <g id="id3">
     <rect class="BoundingBox" stroke="none" fill="none" x="-14" y="-14" width="13546" height="13546"/>
     <path fill="rgb(37,96,144)" stroke="none" d="M 7553,358 C 7543,348 7533,339 7523,329 7513,320 7503,310 7493,301 7482,292 7471,283 7461,274 7450,266 7439,257 7428,248 7417,240 7406,232 7395,224 7383,216 7372,208 7361,200 7337,185 7314,171 7290,156 7265,143 7241,130 7216,117 7191,105 7166,94 7141,83 7115,73 7089,63 7063,53 7037,45 7010,37 6984,29 6957,23 6930,17 6903,11 6876,6 6849,1 6822,-3 6794,-6 6767,-9 6739,-11 6711,-12 6684,-13 6656,-14 4856,-14 3056,-14 1256,-14 1213,-12 1169,-10 1126,-7 1084,-1 1042,5 1000,12 960,22 919,33 878,43 840,57 801,72 762,86 725,104 688,122 651,139 616,161 581,182 546,203 514,227 481,252 448,276 418,303 388,331 358,358 331,388 303,418 276,448 252,481 227,514 203,546 182,581 161,616 139,651 122,688 104,725 86,762 72,801 57,840 43,878 33,919 22,960 12,1000 5,1042 -1,1084 -7,1126 -10,1169 -12,1213 -14,1256 -14,3056 -14,4856 -14,6656 -13,6684 -12,6711 -11,6739 -9,6767 -6,6794 -3,6822 1,6849 6,6876 11,6903 17,6930 23,6957 29,6984 37,7010 45,7037 53,7063 63,7089 73,7115 83,7141 94,7166 105,7191 117,7216 130,7241 143,7265 156,7290 171,7314 185,7337 200,7361 208,7372 216,7383 224,7395 232,7406 240,7417 248,7428 257,7439 266,7450 274,7461 283,7471 292,7482 301,7493 310,7503 320,7513 329,7523 339,7533 348,7543 358,7553 2227,9422 4095,11290 5964,13159 5996,13188 6028,13217 6060,13246 6095,13271 6129,13297 6163,13322 6199,13343 6235,13364 6271,13386 6309,13403 6346,13421 6384,13438 6423,13452 6461,13465 6500,13479 6540,13488 6579,13498 6619,13508 6659,13514 6700,13519 6740,13525 6780,13527 6821,13529 6862,13531 6902,13529 6943,13527 6983,13525 7023,13519 7064,13514 7104,13508 7144,13498 7183,13488 7223,13479 7262,13465 7300,13452 7339,13438 7377,13421 7414,13403 7452,13386 7488,13364 7524,13343 7560,13322 7594,13297 7628,13271 7663,13246 7695,13217 7727,13188 7759,13159 9559,11359 11359,9559 13159,7759 13188,7727 13217,7695 13246,7663 13271,7628 13297,7594 13322,7560 13343,7524 13364,7488 13386,7452 13403,7414 13421,7377 13438,7339 13452,7300 13465,7262 13479,7223 13488,7183 13498,7144 13508,7104 13514,7064 13519,7023 13525,6983 13527,6943 13529,6902 13531,6862 13529,6821 13527,6780 13525,6740 13519,6700 13514,6659 13508,6619 13498,6579 13488,6540 13479,6500 13465,6461 13452,6423 13438,6384 13421,6346 13403,6309 13386,6271 13364,6235 13343,6199 13322,6163 13297,6129 13271,6095 13246,6060 13217,6028 13188,5996 13159,5964 11290,4095 9422,2227 7553,358 Z M 7160,12560 C 7149,12570 7139,12579 7128,12589 7117,12598 7105,12606 7094,12614 7082,12622 7070,12629 7058,12636 7045,12642 7033,12648 7020,12653 7007,12658 6995,12662 6982,12667 6968,12670 6955,12673 6942,12677 6929,12679 6915,12681 6902,12683 6888,12683 6875,12684 6861,12685 6848,12684 6834,12683 6821,12683 6807,12681 6794,12679 6781,12677 6767,12673 6754,12670 6741,12667 6728,12662 6715,12658 6702,12653 6690,12648 6677,12642 6665,12636 6653,12629 6641,12622 6629,12614 6617,12606 6606,12598 6594,12589 6584,12579 6573,12570 6562,12560 4694,10692 2825,8823 957,6955 954,6952 950,6948 947,6945 944,6941 941,6938 938,6934 935,6931 932,6927 929,6924 926,6920 923,6916 920,6913 915,6905 909,6898 904,6890 899,6883 894,6875 889,6867 885,6859 880,6851 876,6843 872,6834 868,6826 865,6818 861,6809 858,6800 855,6792 852,6783 850,6774 847,6766 845,6757 843,6748 841,6739 839,6730 838,6721 837,6712 836,6703 835,6694 834,6685 834,6675 833,6666 833,6657 833,6657 833,6656 833,6656 833,4856 833,3056 833,1256 834,1242 834,1227 835,1213 837,1199 839,1185 842,1171 845,1157 849,1144 852,1130 857,1117 862,1105 866,1092 872,1079 878,1067 884,1055 891,1043 898,1031 905,1020 914,1009 922,998 930,987 939,977 948,967 957,957 967,948 977,939 987,930 998,922 1009,914 1020,905 1031,898 1043,891 1055,884 1067,878 1079,872 1092,866 1105,862 1117,857 1130,852 1144,849 1157,845 1171,842 1185,839 1199,837 1213,835 1227,834 1242,834 1256,833 3056,833 4856,833 6656,833 6670,834 6684,834 6698,835 6711,837 6725,839 6739,841 6752,844 6765,848 6779,851 6792,856 6805,860 6818,865 6830,871 6842,877 6855,883 6867,890 6878,897 6890,904 6901,912 6913,920 6924,929 6934,938 6945,948 6955,957 8823,2825 10692,4694 12560,6562 12570,6573 12579,6583 12589,6594 12597,6605 12606,6617 12614,6628 12621,6640 12628,6652 12635,6664 12641,6677 12647,6689 12653,6702 12657,6715 12662,6728 12666,6741 12670,6754 12673,6767 12676,6780 12678,6794 12680,6807 12682,6820 12682,6834 12683,6847 12684,6861 12683,6875 12682,6888 12682,6902 12680,6915 12678,6928 12676,6942 12673,6955 12670,6968 12666,6981 12662,6994 12657,7007 12653,7020 12647,7033 12641,7045 12635,7058 12628,7070 12621,7082 12614,7094 12606,7105 12597,7117 12589,7128 12579,7139 12570,7149 12560,7160 10760,8960 8960,10760 7160,12560 Z M 4325,3796 C 4324,3814 4323,3832 4322,3850 4320,3868 4317,3885 4314,3903 4310,3919 4306,3936 4301,3953 4295,3969 4289,3986 4283,4002 4276,4017 4269,4033 4261,4048 4252,4063 4243,4077 4235,4092 4224,4105 4214,4119 4204,4132 4193,4145 4181,4157 4170,4170 4157,4181 4145,4193 4132,4204 4119,4214 4105,4224 4092,4235 4077,4243 4063,4252 4048,4261 4033,4269 4017,4276 4002,4283 3986,4289 3969,4295 3953,4301 3936,4306 3919,4310 3903,4314 3885,4317 3868,4320 3850,4322 3832,4323 3814,4324 3796,4325 3778,4324 3760,4323 3742,4322 3724,4320 3707,4317 3689,4314 3673,4310 3656,4306 3639,4301 3623,4295 3606,4289 3590,4283 3575,4276 3559,4269 3544,4261 3529,4252 3515,4243 3500,4235 3487,4224 3473,4214 3460,4204 3447,4193 3435,4181 3422,4170 3411,4157 3399,4145 3388,4132 3378,4119 3368,4105 3357,4092 3349,4077 3340,4063 3331,4048 3323,4033 3316,4017 3309,4002 3303,3986 3297,3969 3291,3953 3286,3936 3282,3919 3278,3903 3275,3885 3272,3868 3270,3850 3269,3832 3268,3814 3267,3796 3268,3778 3269,3760 3270,3742 3272,3724 3275,3707 3278,3689 3282,3673 3286,3656 3291,3639 3297,3623 3303,3606 3309,3590 3316,3575 3323,3559 3331,3544 3340,3529 3349,3515 3357,3500 3368,3487 3378,3473 3388,3460 3399,3447 3411,3435 3422,3422 3435,3411 3447,3399 3460,3388 3473,3378 3487,3368 3500,3357 3515,3349 3529,3340 3544,3331 3559,3323 3575,3316 3590,3309 3606,3303 3623,3297 3639,3291 3656,3286 3673,3282 3689,3278 3707,3275 3724,3272 3742,3270 3760,3269 3778,3268 3796,3267 3814,3268 3832,3269 3850,3270 3868,3272 3885,3275 3903,3278 3919,3282 3936,3286 3953,3291 3969,3297 3986,3303 4002,3309 4017,3316 4033,3323 4048,3331 4063,3340 4077,3349 4092,3357 4105,3368 4119,3378 4132,3388 4145,3399 4157,3411 4170,3422 4181,3435 4193,3447 4204,3460 4214,3473 4224,3487 4235,3500 4243,3515 4252,3529 4261,3544 4269,3559 4276,3575 4283,3590 4289,3606 4295,3623 4301,3639 4306,3656 4310,3673 4314,3689 4317,3707 4320,3724 4322,3742 4323,3760 4324,3778 4325,3796 Z M 3796,2526 C 3753,2528 3709,2530 3666,2533 3624,2539 3582,2545 3540,2552 3499,2562 3459,2573 3418,2583 3379,2597 3340,2611 3301,2626 3264,2644 3227,2661 3190,2679 3155,2700 3121,2722 3086,2743 3053,2767 3020,2791 2988,2816 2958,2843 2928,2870 2898,2898 2870,2928 2843,2958 2816,2988 2791,3020 2767,3053 2743,3086 2722,3121 2700,3155 2679,3190 2661,3227 2644,3264 2626,3301 2611,3340 2597,3379 2583,3418 2573,3459 2562,3499 2552,3540 2545,3582 2539,3624 2533,3666 2530,3709 2528,3753 2526,3796 2528,3839 2530,3883 2533,3926 2539,3968 2545,4010 2552,4052 2562,4092 2573,4133 2583,4174 2597,4212 2611,4251 2626,4290 2644,4327 2661,4364 2679,4401 2700,4436 2722,4471 2743,4506 2767,4538 2791,4571 2816,4604 2843,4634 2870,4664 2898,4694 2928,4721 2958,4749 2988,4776 3020,4800 3053,4825 3086,4849 3121,4870 3155,4891 3190,4913 3227,4930 3264,4948 3301,4966 3340,4980 3379,4995 3418,5009 3459,5019 3499,5030 3540,5040 3582,5047 3624,5053 3666,5059 3709,5062 3753,5064 3796,5066 3839,5064 3883,5062 3926,5059 3968,5053 4010,5047 4052,5040 4092,5030 4133,5019 4174,5009 4212,4995 4251,4980 4290,4966 4327,4948 4364,4930 4401,4913 4436,4891 4471,4870 4506,4849 4538,4825 4571,4800 4604,4776 4634,4749 4664,4721 4694,4694 4721,4664 4749,4634 4776,4604 4800,4571 4825,4538 4849,4506 4870,4471 4891,4436 4913,4401 4930,4364 4948,4327 4966,4290 4980,4251 4995,4212 5009,4174 5019,4133 5030,4092 5040,4052 5047,4010 5053,3968 5059,3926 5062,3883 5064,3839 5066,3796 5064,3753 5062,3709 5059,3666 5053,3624 5047,3582 5040,3540 5030,3499 5019,3459 5009,3418 4995,3379 4980,3340 4966,3301 4948,3264 4930,3227 4913,3190 4891,3155 4870,3121 4849,3086 4825,3053 4800,3020 4776,2988 4749,2958 4721,2928 4694,2898 4664,2870 4634,2843 4604,2816 4571,2791 4538,2767 4506,2743 4471,2722 4436,2700 4401,2679 4364,2661 4327,2644 4290,2626 4251,2611 4212,2597 4174,2583 4133,2573 4092,2562 4052,2552 4010,2545 3968,2539 3926,2533 3883,2530 3839,2528 3796,2526 Z"/>
    </g>
   </g>
   <g class="Group">
    <g class="com.sun.star.drawing.ClosedBezierShape">
     <g id="id4">
      <rect class="BoundingBox" stroke="none" fill="none" x="3584" y="3550" width="6569" height="6569"/>
      <path fill="rgb(174,50,81)" stroke="none" d="M 8735,3723 L 3757,8701 C 3527,8930 3527,9302 3757,9531 L 4171,9945 C 4401,10175 4772,10175 5001,9945 L 9979,4967 C 10209,4738 10209,4367 9979,4137 L 9565,3723 C 9336,3493 8964,3493 8735,3723 Z"/>
     </g>
    </g>
    <g class="com.sun.star.drawing.ClosedBezierShape">
     <g id="id5">
      <rect class="BoundingBox" stroke="none" fill="none" x="3584" y="3550" width="6569" height="6569"/>
      <path fill="rgb(174,50,81)" stroke="none" d="M 9979,8701 L 5001,3723 C 4772,3493 4400,3493 4171,3723 L 3757,4137 C 3527,4367 3527,4738 3757,4967 L 8735,9945 C 8964,10175 9335,10175 9565,9945 L 9979,9531 C 10209,9302 10209,8930 9979,8701 Z"/>
     </g>
    </g>
   </g>
  </g>
 </g>
</svg>